<?xml version="1.0" encoding="UTF-8"?>
<svg version="1.1" xmlns="http://www.w3.org/2000/svg" width="425" height="425">
<path d="M0 0 C17.97661657 7.54934478 30.61159111 34.01460702 37.55273438 50.91992188 C47.64473544 76.88931278 49.54459828 106.60499206 38.5 132.51953125 C29.46395412 151.82571261 13.94842782 165.23974124 -5.953125 172.50390625 C-19.43528931 177.08344126 -34.24610856 180.22447604 -48.5 180.0625 C-49.5415625 180.05347656 -50.583125 180.04445312 -51.65625 180.03515625 C-52.81640625 180.01775391 -52.81640625 180.01775391 -54 180 C-53.84015625 180.86625 -53.6803125 181.7325 -53.515625 182.625 C-52.2754033 190.74281476 -52.70648285 198.43918735 -54.515625 206.4375 C-54.79180664 207.67371094 -55.06798828 208.90992188 -55.35253906 210.18359375 C-55.56620117 211.11300781 -55.77986328 212.04242188 -56 213 C-55.30098068 212.99777939 -54.60196136 212.99555878 -53.88175964 212.99327087 C-44.98368368 212.96632078 -36.08560868 212.94820661 -27.1875 212.9375 C-26.48107109 212.93664398 -25.77464218 212.93578796 -25.04680634 212.93490601 C-3.01704775 212.911308 18.98589946 213.0933952 41 214 C42.22532576 216.45065151 42.12691158 218.04573377 42.12939453 220.78515625 C42.13254669 221.7795874 42.13569885 222.77401855 42.13894653 223.79858398 C42.13591019 225.41422241 42.13591019 225.41422241 42.1328125 227.0625 C42.13424759 228.71584351 42.13424759 228.71584351 42.13571167 230.40258789 C42.13639306 232.73616594 42.13454163 235.06974589 42.13037109 237.40332031 C42.1250223 240.98506915 42.1303175 244.56669258 42.13671875 248.1484375 C42.13605796 250.41145861 42.13477678 252.67447964 42.1328125 254.9375 C42.13483673 256.01459229 42.13686096 257.09168457 42.13894653 258.20141602 C42.13579437 259.19584717 42.13264221 260.19027832 42.12939453 261.21484375 C42.12820114 262.53150024 42.12820114 262.53150024 42.12698364 263.87475586 C42 266 42 266 41 268 C35.8565799 268.10041384 30.80735487 268.03457308 25.6875 267.5 C19.45549996 266.86608596 13.25782785 266.91046033 7 267 C8.17755859 268.01707031 8.17755859 268.01707031 9.37890625 269.0546875 C21.52909664 279.73617355 31.92790561 292.89026674 33.20483398 309.69580078 C33.9364037 331.91094828 30.55401123 349.12924708 15 366 C-4.80834622 386.30432985 -32.41355362 396.04776815 -60 400 C-60.68271973 400.10296387 -61.36543945 400.20592773 -62.06884766 400.31201172 C-105.18197132 406.54416684 -160.311612 403.96924526 -197.0625 378 C-198.73000622 376.69387284 -200.37667685 375.3606495 -202 374 C-202.85851562 373.29101562 -203.71703125 372.58203125 -204.6015625 371.8515625 C-218.77090065 359.65137708 -227.74000135 344.67998881 -230 326 C-231.03373263 308.32714796 -227.78121986 291.51413518 -215.82421875 277.94970703 C-212.13273797 273.93857984 -208.32248952 270.32379158 -204 267 C-213.45263641 266.88409574 -222.80707167 267.040517 -232.23388672 267.82006836 C-234.15199482 267.95677142 -236.0770681 267.98737681 -238 268 C-240.52381456 265.47618544 -240.25668466 264.61655272 -240.2746582 261.12304688 C-240.28419022 260.10859497 -240.29372223 259.09414307 -240.30354309 258.0489502 C-240.30263168 256.94998413 -240.30172028 255.85101807 -240.30078125 254.71875 C-240.30506638 253.59432495 -240.3093515 252.4698999 -240.31376648 251.31140137 C-240.31951719 248.9307523 -240.32000462 246.55008566 -240.31567383 244.16943359 C-240.31251297 240.51499666 -240.33596788 236.86136804 -240.36132812 233.20703125 C-240.36360083 230.89843853 -240.36430475 228.58984361 -240.36328125 226.28125 C-240.372491 225.18228394 -240.38170074 224.08331787 -240.39118958 222.9510498 C-240.38184639 221.42937195 -240.38184639 221.42937195 -240.37231445 219.87695312 C-240.37294388 218.98141724 -240.3735733 218.08588135 -240.3742218 217.16320801 C-240.25072861 216.44934937 -240.12723541 215.73549072 -240 215 C-236.91682198 212.94454799 -236.28350831 212.74937535 -232.80297852 212.74171448 C-231.94809341 212.73488647 -231.09320831 212.72805847 -230.2124176 212.72102356 C-228.80982948 212.72485298 -228.80982948 212.72485298 -227.37890625 212.72875977 C-226.39151962 212.72353302 -225.404133 212.71830627 -224.38682556 212.71292114 C-222.23918246 212.70266914 -220.09151442 212.69689866 -217.94384766 212.69503975 C-214.53796802 212.69137989 -211.13238058 212.67466029 -207.7265625 212.65428162 C-198.0415594 212.59885431 -188.35651192 212.56827819 -178.67138672 212.54370117 C-172.74801457 212.52776344 -166.82484671 212.49747096 -160.90158081 212.45893669 C-158.64991436 212.44733247 -156.39821124 212.44135674 -154.14651489 212.44125557 C-150.98287875 212.441062 -147.81979905 212.4226824 -144.65625 212.40063477 C-143.27795265 212.40750053 -143.27795265 212.40750053 -141.87181091 212.414505 C-134.53612268 212.33384632 -125.39440731 211.81963534 -119.875 206.4375 C-116.83662938 202.48761819 -116.78690332 199.52644763 -116.75 194.6875 C-116.72421875 193.37136719 -116.6984375 192.05523437 -116.671875 190.69921875 C-117.01306497 186.85270796 -117.60139188 184.98705171 -120 182 C-122.89387608 181.03537464 -124.74793682 180.8667313 -127.75784302 180.84851074 C-129.22592407 180.83599525 -129.22592407 180.83599525 -130.72366333 180.82322693 C-132.33215652 180.8169503 -132.33215652 180.8169503 -133.97314453 180.81054688 C-135.1033905 180.80225357 -136.23363647 180.79396027 -137.39813232 180.78541565 C-139.85519121 180.76800277 -142.31226683 180.75283935 -144.76935196 180.73963928 C-148.65128215 180.71865014 -152.53312793 180.69162586 -156.41500854 180.66296387 C-165.35314284 180.59813871 -174.2913253 180.54228869 -183.22952271 180.48697662 C-192.07599713 180.43214098 -200.9224216 180.37350173 -209.76882553 180.30812073 C-213.60507619 180.28144288 -217.44133088 180.26069283 -221.27761841 180.2401123 C-223.61362921 180.22351819 -225.94963807 180.20664714 -228.28564453 180.18945312 C-229.36202179 180.18526871 -230.43839905 180.18108429 -231.5473938 180.17677307 C-232.52047485 180.16842941 -233.49355591 180.16008575 -234.49612427 180.15148926 C-235.34672991 180.14633553 -236.19733555 180.14118179 -237.07371712 180.13587189 C-239 180 -239 180 -240 179 C-240.10434618 177.13909424 -240.13854637 175.27421724 -240.14526367 173.41040039 C-240.15164352 172.21568619 -240.15802338 171.02097198 -240.16459656 169.79005432 C-240.16570938 168.48906296 -240.1668222 167.18807159 -240.16796875 165.84765625 C-240.17117976 164.50866154 -240.17454371 163.16966718 -240.17805481 161.83067322 C-240.18405208 159.0203266 -240.18589411 156.21001077 -240.18530273 153.3996582 C-240.18520109 149.7935364 -240.19885245 146.18761142 -240.21607494 142.58153629 C-240.22717859 139.81492705 -240.22922245 137.04836562 -240.22869301 134.28173637 C-240.2304519 132.30410686 -240.24130352 130.32649226 -240.25224304 128.34889221 C-240.24916641 127.15102585 -240.24608978 125.95315948 -240.24291992 124.71899414 C-240.24434494 123.66055801 -240.24576996 122.60212189 -240.24723816 121.51161194 C-240 119 -240 119 -238 117 C-235.59964454 116.80360869 -233.31445539 116.73235375 -230.91304016 116.7484436 C-230.17462472 116.74547346 -229.43620927 116.74250333 -228.6754176 116.73944318 C-226.1875868 116.73177186 -223.69998994 116.73831021 -221.2121582 116.74462891 C-219.43326659 116.74188022 -217.65437621 116.73820107 -215.87548828 116.73365784 C-212.03569699 116.72552853 -208.195964 116.72338186 -204.35616493 116.72560501 C-198.27354293 116.72843527 -192.19103739 116.71409342 -186.10844421 116.69662476 C-168.80823548 116.6495811 -151.50803349 116.62568251 -134.20776367 116.61914062 C-124.65945271 116.61537758 -115.11127249 116.5972415 -105.56301755 116.56404626 C-99.52907487 116.5439248 -93.49547164 116.54141768 -87.46150935 116.55232644 C-83.68475592 116.55495316 -79.90819557 116.54083308 -76.13149261 116.52224541 C-74.39462428 116.5169691 -72.65771935 116.51834094 -70.92086601 116.52728081 C-57.19822018 116.59214805 -41.56309853 116.01436614 -31 106 C-24.37573631 97.71167007 -24.28951729 89.27155004 -25 79 C-27.6200913 65.8048414 -35.83901467 55.8224975 -44.44921875 45.9453125 C-46.70155252 43.34460858 -48.87123132 40.70209045 -51 38 C-49.49157419 33.44307729 -45.75628575 31.49522932 -41.9375 29 C-40.47709606 28.02197994 -39.01748617 27.04277333 -37.55859375 26.0625 C-36.80433105 25.55847656 -36.05006836 25.05445312 -35.27294922 24.53515625 C-31.64051011 22.08179673 -28.07171318 19.54058375 -24.5 17 C-16.38974603 11.25053027 -8.20652958 5.61092466 0 0 Z M-148.3125 276.3125 C-155.1110888 284.45184635 -157.29749526 292.38933588 -157 303 C-155.98530979 311.03946862 -153.58695976 317.11898972 -148 323 C-147.44699219 323.59296875 -146.89398438 324.1859375 -146.32421875 324.796875 C-132.32691073 338.34459068 -112.98049928 341.6383918 -94.29858398 341.47070312 C-76.95297754 340.97567861 -60.91537214 336.5257922 -47.94140625 324.31640625 C-40.64118128 315.60607746 -38.19062963 306.08101618 -39 295 C-41.07566921 283.86983676 -47.1459725 274.96566853 -56 268 C-82.91675825 251.96778339 -125.88073217 252.55878637 -148.3125 276.3125 Z " fill="#E3E3E3" transform="translate(310,5)"/>
<path d="M0 0 C0.66 0 1.32 0 2 0 C2 18.48 2 36.96 2 56 C10.26675781 55.97679687 18.53351563 55.95359375 27.05078125 55.9296875 C32.94242908 55.91817383 38.83406848 55.90792049 44.72572041 55.89949226 C52.36396575 55.88839704 60.00216755 55.87429733 67.64038086 55.84912109 C74.33173943 55.82707627 81.02304113 55.81544159 87.71443748 55.81024551 C90.27139211 55.80654105 92.82834406 55.7993075 95.3852787 55.78853989 C98.95783758 55.77408937 102.53019995 55.77201937 106.1027832 55.77294922 C107.16733231 55.76575867 108.23188141 55.75856812 109.32868958 55.75115967 C110.78631714 55.75528366 110.78631714 55.75528366 112.27339172 55.75949097 C113.11867589 55.75764738 113.96396006 55.75580379 114.83485889 55.75390434 C117 56 117 56 120 58 C104.50160144 58.02332946 89.00320418 58.04097941 73.50479221 58.05181217 C66.30909705 58.05697503 59.11341278 58.06401753 51.91772461 58.07543945 C45.64815306 58.0853866 39.37858939 58.0918535 33.10901016 58.09408849 C29.78734379 58.09539555 26.46570534 58.09899997 23.14404488 58.10573006 C19.44180053 58.11293628 15.73960369 58.11399112 12.03735352 58.11352539 C10.3736396 58.1189183 10.3736396 58.1189183 8.67631531 58.12442017 C7.67365631 58.1230455 6.67099731 58.12167084 5.63795471 58.12025452 C4.76132958 58.12117631 3.88470446 58.1220981 2.98151493 58.12304783 C1 58 1 58 0 57 C-0.09370624 55.22008076 -0.11744271 53.43643261 -0.11352539 51.65405273 C-0.11344986 50.5129454 -0.11337433 49.37183807 -0.11329651 48.19615173 C-0.10813522 46.9545076 -0.10297394 45.71286346 -0.09765625 44.43359375 C-0.0962413 43.16983414 -0.09482635 41.90607452 -0.09336853 40.60401917 C-0.08870582 37.23875111 -0.0797148 33.8735501 -0.06866455 30.50830078 C-0.05844846 27.0765033 -0.05387049 23.64469891 -0.04882812 20.21289062 C-0.0377738 13.47524176 -0.0210171 6.73762475 0 0 Z " fill="#D1CFD1" transform="translate(70,127)"/>
<path d="M0 0 C-2.56119169 7.02766011 -12.02988969 10.49431908 -18.375 13.7109375 C-35.28773953 21.42345992 -54.48996091 24.62044824 -73 24 C-72.75830078 25.29357422 -72.75830078 25.29357422 -72.51171875 26.61328125 C-71.11139658 35.8810623 -71.95799213 44.90212565 -74 54 C-75.485 54.495 -75.485 54.495 -77 55 C-76.855625 54.20980469 -76.71125 53.41960937 -76.5625 52.60546875 C-74.8733151 42.34132441 -74.80088667 32.37601693 -75 22 C-74.22100342 21.93530518 -73.44200684 21.87061035 -72.6394043 21.80395508 C-51.9078843 20.02531005 -30.74477904 17.85108683 -12 8 C-10.24998773 5.92391649 -10.24998773 5.92391649 -9 4 C-8.34 4 -7.68 4 -7 4 C-6.67 3.34 -6.34 2.68 -6 2 C-3.85118612 0.75230162 -2.50320403 0 0 0 Z " fill="#DAD7D9" transform="translate(329,161)"/>
<path d="M0 0 C0.99 0.495 0.99 0.495 2 1 C-4.34737594 7.64963193 -12.18344318 7.95054908 -20.94274902 8.17095947 C-26.97757416 8.25665365 -33.01172765 8.22521969 -39.046875 8.1953125 C-41.27174756 8.19157642 -43.49662178 8.18873226 -45.72149658 8.18673706 C-51.54110356 8.17914745 -57.36060869 8.15953966 -63.18017578 8.1373291 C-69.13312401 8.1167694 -75.0860889 8.10771381 -81.0390625 8.09765625 C-92.69275277 8.07628889 -104.34636787 8.04221013 -116 8 C-115.67 7.34 -115.34 6.68 -115 6 C-113.75909103 5.99413376 -112.51818207 5.98826752 -111.2396698 5.98222351 C-99.51420294 5.92487553 -87.7889194 5.85205097 -76.06363964 5.76428509 C-70.03633666 5.7196613 -64.00910003 5.68038753 -57.98168945 5.65356445 C-52.15899847 5.62745185 -46.33656392 5.58699313 -40.51403236 5.53681374 C-38.29866043 5.52019877 -36.08324421 5.5086512 -33.86781883 5.50238609 C-30.75169713 5.4926865 -27.63622361 5.46455733 -24.52026367 5.43237305 C-23.61538712 5.43380814 -22.71051056 5.43524323 -21.7782135 5.4367218 C-14.17562751 5.3265163 -6.42436155 4.2829077 0 0 Z " fill="#DEDCDF" transform="translate(190,212)"/>
<path d="M0 0 C1.08482666 -0.00314209 2.16965332 -0.00628418 3.28735352 -0.00952148 C13.17611427 0.13647328 21.91083236 1.98666618 30.8125 6.4375 C30.8125 7.0975 30.8125 7.7575 30.8125 8.4375 C30.14605469 8.24414062 29.47960937 8.05078125 28.79296875 7.8515625 C25.80857764 7.00841984 22.81474759 6.21459691 19.8125 5.4375 C19.0184375 5.22480469 18.224375 5.01210938 17.40625 4.79296875 C-3.27512315 0.12623033 -26.95242279 3.05015444 -45 14.25 C-54.63199298 21.09011096 -59.47267443 29.46850649 -61.4375 41 C-61.69973392 42.81077045 -61.9541354 44.62278316 -62.1875 46.4375 C-62.5175 46.4375 -62.8475 46.4375 -63.1875 46.4375 C-63.67882395 38.37159843 -63.16019342 32.5179831 -59.1875 25.4375 C-58.775 24.57125 -58.3625 23.705 -57.9375 22.8125 C-55.20017119 19.09755375 -51.75897432 16.33059372 -48.1875 13.4375 C-47.62933594 12.96957031 -47.07117188 12.50164062 -46.49609375 12.01953125 C-41.57770744 8.16778293 -36.09038308 6.32607122 -30.1875 4.4375 C-28.455 3.880625 -28.455 3.880625 -26.6875 3.3125 C-17.78600357 1.08712589 -9.17689719 0.02211301 0 0 Z " fill="#D3D1D1" transform="translate(215.1875,260.5625)"/>
<path d="M0 0 C0 0.66 0 1.32 0 2 C-13.28276552 9.00364 -26.07433047 11.35511866 -41.0625 11.25 C-42.16916016 11.25773437 -43.27582031 11.26546875 -44.41601562 11.2734375 C-51.17830861 11.25746043 -57.43225659 10.62504684 -64 9 C-64.33 8.01 -64.66 7.02 -65 6 C-63.91271606 6.21003662 -63.91271606 6.21003662 -62.8034668 6.42431641 C-55.42515662 7.76388921 -48.30726351 8.38678515 -40.8125 8.375 C-39.7304126 8.37338867 -38.6483252 8.37177734 -37.53344727 8.37011719 C-24.48079244 8.17259908 -11.70014469 0 0 0 Z " fill="#D9D6D8" transform="translate(253,337)"/>
<path d="M0 0 C0.99 0.33 1.98 0.66 3 1 C-12.2083127 17.38488704 -32.44079331 27.60888149 -54 33 C-54.99 33 -55.98 33 -57 33 C-57 32.34 -57 31.68 -57 31 C-50.74538144 28.73383385 -44.54849313 27.16204993 -38 26 C-38 25.34 -38 24.68 -38 24 C-37.33355469 23.78085937 -36.66710937 23.56171875 -35.98046875 23.3359375 C-28.13786286 20.63764233 -20.4303538 17.4037121 -13.80859375 12.31640625 C-12 11 -12 11 -10 11 C-9.67 10.01 -9.34 9.02 -9 8 C-8.34 8 -7.68 8 -7 8 C-6.731875 7.360625 -6.46375 6.72125 -6.1875 6.0625 C-5 4 -5 4 -2 3 C-1.34 2.01 -0.68 1.02 0 0 Z " fill="#D6D3D4" transform="translate(324,368)"/>
<path d="M0 0 C0.33 0 0.66 0 1 0 C1.02529373 6.94172388 1.04284304 13.88343594 1.05493164 20.82519531 C1.05996959 23.18815556 1.06680008 25.55111268 1.07543945 27.9140625 C1.08752854 31.30469535 1.09323359 34.69528709 1.09765625 38.0859375 C1.10281754 39.14743011 1.10797882 40.20892273 1.11329651 41.30258179 C1.11337204 42.28344757 1.11344757 43.26431335 1.11352539 44.27490234 C1.115746 45.14094086 1.11796661 46.00697937 1.12025452 46.89926147 C1 49 1 49 0 51 C-2.97 51 -5.94 51 -9 51 C-8.67 50.34 -8.34 49.68 -8 49 C-5.69 49 -3.38 49 -1 49 C-1.25015869 48.06752441 -1.25015869 48.06752441 -1.50537109 47.11621094 C-2.19569762 42.76708568 -2.02922621 38.53373463 -1.9140625 34.140625 C-1.89282318 33.19564148 -1.87158386 32.25065796 -1.84970093 31.27703857 C-1.8035613 29.28667827 -1.75464361 27.29638068 -1.703125 25.30615234 C-1.62492847 22.24720173 -1.5579565 19.18814658 -1.4921875 16.12890625 C-1.44598146 14.1952964 -1.39912914 12.26170186 -1.3515625 10.328125 C-1.33171295 9.40839905 -1.3118634 8.4886731 -1.29141235 7.54107666 C-1.11512268 1.11512268 -1.11512268 1.11512268 0 0 Z " fill="#D5D1D5" transform="translate(351,222)"/>
<path d="M0 0 C15.19840743 6.99192394 26.6637954 29.30748664 32.22265625 44.296875 C32.89898658 46.52404651 33.51365397 48.72479503 34 51 C33.34 51 32.68 51 32 51 C31.73445313 50.22914062 31.46890625 49.45828125 31.1953125 48.6640625 C30.84210938 47.66117188 30.48890625 46.65828125 30.125 45.625 C29.77695312 44.62726562 29.42890625 43.62953125 29.0703125 42.6015625 C28.15217498 39.89557882 28.15217498 39.89557882 26 38 C26 36.68 26 35.36 26 34 C25.34 34 24.68 34 24 34 C23.59007812 33.22914062 23.18015625 32.45828125 22.7578125 31.6640625 C22.21898437 30.66117188 21.68015625 29.65828125 21.125 28.625 C20.32449219 27.12839844 20.32449219 27.12839844 19.5078125 25.6015625 C18.1179862 22.94651605 18.1179862 22.94651605 16 21 C13 16.38461538 13 16.38461538 13 14 C12.01 13.67 11.02 13.34 10 13 C8.7890625 11.51171875 8.7890625 11.51171875 7.625 9.6875 C5.45877189 6.47437138 3.07728838 4.37390818 0 2 C0 1.34 0 0.68 0 0 Z " fill="#D4D1D3" transform="translate(314,9)"/>
<path d="M0 0 C-2.5683973 7.04743161 -12.12917309 10.57415597 -18.515625 13.74609375 C-26.17312092 17.18853306 -33.75749934 19.43912778 -42 21 C-42.33 20.34 -42.66 19.68 -43 19 C-42.30962646 18.7733667 -41.61925293 18.5467334 -40.90795898 18.31323242 C-37.75006811 17.27454659 -34.59378167 16.23106505 -31.4375 15.1875 C-29.80844727 14.65286133 -29.80844727 14.65286133 -28.14648438 14.10742188 C-17.18816788 11.10809262 -17.18816788 11.10809262 -9 4 C-8.34 4 -7.68 4 -7 4 C-6.67 3.34 -6.34 2.68 -6 2 C-3.85118612 0.75230162 -2.50320403 0 0 0 Z " fill="#D1CED0" transform="translate(329,161)"/>
<path d="M0 0 C0.66 0 1.32 0 2 0 C2.18433594 0.82242187 2.36867187 1.64484375 2.55859375 2.4921875 C5.46059047 13.66165042 10.53308854 20.56214069 20.43603516 26.43823242 C24.55164384 28.76698368 28.76034703 30.90634421 33 33 C33 33.66 33 34.32 33 35 C27.42827614 33.86676803 24.32639454 32.79878545 20 29 C17.71608807 27.45440418 15.40512064 25.95687796 13.0859375 24.46484375 C11.14266852 23.10018857 9.53778858 21.80714645 8 20 C8 19.34 8 18.68 8 18 C7.34 18 6.68 18 6 18 C1.19005488 12.63563753 0.15800458 7.00965774 0 0 Z " fill="#D6D4D5" transform="translate(152,309)"/>
<path d="M0 0 C1.52367188 0.68835938 1.52367188 0.68835938 3.078125 1.390625 C13.49568882 6.0525515 23.60541751 10.4661139 35 12 C37.72329809 12.89002993 40.34038558 13.92682225 43 15 C43 15.33 43 15.66 43 16 C27.09615964 15.24267427 13.01403785 9.06840708 -1 2 C-0.67 1.34 -0.34 0.68 0 0 Z " fill="#DAD7D8" transform="translate(122,386)"/>
<path d="M0 0 C2 2 2 2 2.1875 5.2734375 C1.85215151 16.08310317 -0.46246464 24.41534109 -7.4375 33 C-10.49256942 35.38444443 -13.57538475 37.1869684 -17 39 C-15.67732688 35.93969749 -14.45951638 34.40398448 -11.75 32.5 C-6.11450175 27.90199934 -2.2899072 20.14201247 -1 13 C-0.7801777 10.75292759 -0.59516013 8.50228762 -0.4375 6.25 C-0.35371094 5.07953125 -0.26992188 3.9090625 -0.18359375 2.703125 C-0.09271484 1.36507813 -0.09271484 1.36507813 0 0 Z " fill="#D7D6D8" transform="translate(271,298)"/>
<path d="M0 0 C7.46394157 6.36630311 12.44575636 16.35571892 14 26 C14.22265496 31.01715839 14.18073398 35.97961171 14 41 C13.34 41 12.68 41 12 41 C11.97421875 40.05640625 11.9484375 39.1128125 11.921875 38.140625 C11.36309674 25.49191722 8.76403622 15.8262787 1.390625 5.27734375 C0 3 0 3 0 0 Z " fill="#D6D2D5" transform="translate(274,58)"/>
<path d="M0 0 C0.66 0.33 1.32 0.66 2 1 C1.42864781 6.18240581 -0.2343701 10.16618554 -2.5625 14.75 C-2.9145752 15.44867188 -3.26665039 16.14734375 -3.62939453 16.8671875 C-6.69458433 22.76105135 -10.21828068 28.33052762 -15 33 C-15.66 33 -16.32 33 -17 33 C-15.62408154 28.9869045 -13.72281449 26.2333422 -11 23 C-10.34 22.01 -9.68 21.02 -9 20 C-8.34 20 -7.68 20 -7 20 C-6.9175 19.34 -6.835 18.68 -6.75 18 C-6.08864548 15.35458194 -5.31112729 13.51085289 -4.0625 11.125 C-2.15336304 7.47334167 -0.99807997 3.99231989 0 0 Z " fill="#D7D4D6" transform="translate(350,125)"/>
<path d="M0 0 C0 0.66 0 1.32 0 2 C-2.49943204 2.48229332 -4.99948243 2.96089426 -7.5 3.4375 C-8.19609375 3.57220703 -8.8921875 3.70691406 -9.609375 3.84570312 C-16.39375318 5.13347861 -23.06994584 6.14912568 -30 6.0625 C-30.94875 6.05347656 -31.8975 6.04445313 -32.875 6.03515625 C-33.57625 6.02355469 -34.2775 6.01195312 -35 6 C-34.67 5.34 -34.34 4.68 -34 4 C-31.76269531 3.51342773 -31.76269531 3.51342773 -28.828125 3.18359375 C-27.77109375 3.05919922 -26.7140625 2.93480469 -25.625 2.80664062 C-24.51125 2.68482422 -23.3975 2.56300781 -22.25 2.4375 C-20.06753067 2.18774559 -17.88523184 1.9364957 -15.703125 1.68359375 C-14.73020508 1.57587646 -13.75728516 1.46815918 -12.75488281 1.35717773 C-10.93382485 1.12107282 -9.11962855 0.82304373 -7.31933594 0.46118164 C-4.82825534 -0.03415007 -2.53325934 -0.07237884 0 0 Z " fill="#D8D3D7" transform="translate(266,400)"/>
<path d="M0 0 C0.66 0 1.32 0 2 0 C3.24076077 1.50197356 4.47921817 3.00612315 5.69140625 4.53125 C7.25534961 6.28660135 8.80260134 7.18614864 11 8 C11 8.66 11 9.32 11 10 C11.94875 10.309375 12.8975 10.61875 13.875 10.9375 C17 12 17 12 19 13 C19 13.66 19 14.32 19 15 C19.639375 15.268125 20.27875 15.53625 20.9375 15.8125 C23 17 23 17 24 20 C14.78012102 16.71074588 6.17496288 9.53734724 0 2 C0 1.34 0 0.68 0 0 Z " fill="#D2CECF" transform="translate(96,366)"/>
<path d="M0 0 C0.33 0 0.66 0 1 0 C1.74484249 12.46921501 -1.55457526 22.40363829 -8 33 C-8.33 31.68 -8.66 30.36 -9 29 C-8.34 29 -7.68 29 -7 29 C-6.8453125 27.7315625 -6.8453125 27.7315625 -6.6875 26.4375 C-6 23 -6 23 -4.5625 20 C-2.37203359 15.26645551 -2.05083763 10.13893169 -1.4296875 5.01171875 C-1 2 -1 2 0 0 Z " fill="#D7D4D8" transform="translate(342,326)"/>
<path d="M0 0 C0.33 0.66 0.66 1.32 1 2 C0.67 2.66 0.34 3.32 0 4 C-0.66 4 -1.32 4 -2 4 C-2 4.66 -2 5.32 -2 6 C-3.051875 6.45375 -4.10375 6.9075 -5.1875 7.375 C-11.74594568 10.61286327 -17.31311067 15.45742377 -23 20 C-23.66 19.67 -24.32 19.34 -25 19 C-21.04934709 14.74782955 -16.75514552 11.58970755 -11.9375 8.375 C-10.529469 7.42518875 -9.12190249 6.47468848 -7.71484375 5.5234375 C-7.06628418 5.08612305 -6.41772461 4.64880859 -5.74951172 4.19824219 C-3.78842777 2.85509398 -1.87964901 1.45489716 0 0 Z " fill="#D4D1D5" transform="translate(298,13)"/>
<path d="M0 0 C4.04131267 1.34710422 4.90288434 3.38428334 7 7 C7 7.99 7 8.98 7 10 C7.66 10 8.32 10 9 10 C9.33 11.98 9.66 13.96 10 16 C9.34 16.33 8.68 16.66 8 17 C6.85170023 14.730384 5.70628022 12.45939222 4.5625 10.1875 C4.23701172 9.54490234 3.91152344 8.90230469 3.57617188 8.24023438 C2.20767324 5.51734534 0.96516735 2.89550206 0 0 Z " fill="#D6D3D6" transform="translate(262,280)"/>
<path d="M0 0 C0.99 0.33 1.98 0.66 3 1 C3 1.66 3 2.32 3 3 C3.99 3.33 4.98 3.66 6 4 C9.64952252 7.45450986 12.52848475 11.14399966 14 16 C8.24945621 11.81778634 2.96017236 6.53279418 0 0 Z " fill="#D2D0D3" transform="translate(259,42)"/>
<path d="M0 0 C0.99 0.495 0.99 0.495 2 1 C2.4140625 3.50390625 2.4140625 3.50390625 2.625 6.5625 C2.69976562 7.57441406 2.77453125 8.58632813 2.8515625 9.62890625 C2.92503906 10.80259766 2.92503906 10.80259766 3 12 C3.66 12 4.32 12 5 12 C5.33 14.31 5.66 16.62 6 19 C5.34 19 4.68 19 4 19 C-0.59225513 6.51480638 -0.59225513 6.51480638 0 0 Z " fill="#D5D1D6" transform="translate(81,331)"/>
<path d="M0 0 C0.66 0.66 1.32 1.32 2 2 C0.98679687 2.79664063 0.98679687 2.79664063 -0.046875 3.609375 C-1.38492188 4.66898437 -1.38492188 4.66898437 -2.75 5.75 C-3.63171875 6.44609375 -4.5134375 7.1421875 -5.421875 7.859375 C-7.75847248 9.79945897 -9.8938562 11.81512186 -12 14 C-12 11 -12 11 -9.8828125 8.73828125 C-8.97273438 7.93777344 -8.06265625 7.13726562 -7.125 6.3125 C-6.22007813 5.50425781 -5.31515625 4.69601562 -4.3828125 3.86328125 C-2 2 -2 2 0 2 C0 1.34 0 0.68 0 0 Z " fill="#DBD5D9" transform="translate(108,270)"/>
<path d="M0 0 C2.475 0.495 2.475 0.495 5 1 C5 1.66 5 2.32 5 3 C5.639375 3.268125 6.27875 3.53625 6.9375 3.8125 C9 5 9 5 10 8 C6.01328937 6.63312778 3.11505367 4.84804907 0 2 C0 1.34 0 0.68 0 0 Z " fill="#DBD6D8" transform="translate(110,378)"/>
<path d="M0 0 C-1.38956025 3.35810395 -2.82526467 5.18586552 -6 7 C-8.75 7.1875 -8.75 7.1875 -11 7 C-10.34 6.01 -9.68 5.02 -9 4 C-8.34 4 -7.68 4 -7 4 C-6.67 3.34 -6.34 2.68 -6 2 C-3.85118612 0.75230162 -2.50320403 0 0 0 Z " fill="#DAD6D8" transform="translate(329,161)"/>
<path d="M0 0 C0.33 0.66 0.66 1.32 1 2 C1.66 2.33 2.32 2.66 3 3 C1.8553125 3.8971875 1.8553125 3.8971875 0.6875 4.8125 C-1.3483575 6.46959332 -3.1978279 8.10297674 -5 10 C-5.33 9.01 -5.66 8.02 -6 7 C-4.78515625 5.17578125 -4.78515625 5.17578125 -3.0625 3.3125 C-2.49660156 2.68988281 -1.93070312 2.06726563 -1.34765625 1.42578125 C-0.90292969 0.95527344 -0.45820313 0.48476562 0 0 Z " fill="#DBD9DC" transform="translate(283,106)"/>
<path d="M0 0 C2.35170044 2.13790949 3.88791835 4.00593401 5 7 C5.125 10.25 5.125 10.25 5 13 C4.34 13 3.68 13 3 13 C2.87882813 12.38511719 2.75765625 11.77023438 2.6328125 11.13671875 C2.46523437 10.32847656 2.29765625 9.52023438 2.125 8.6875 C1.96257812 7.88699219 1.80015625 7.08648437 1.6328125 6.26171875 C1.05521001 3.74698882 1.05521001 3.74698882 -1 1 C-0.67 0.67 -0.34 0.34 0 0 Z " fill="#D4D2D4" transform="translate(191,185)"/>
<path d="M0 0 C2.9156164 3.54039134 5.50127818 7.1626772 8 11 C7.67 11.66 7.34 12.32 7 13 C0.29612756 4.738041 0.29612756 4.738041 0 0 Z " fill="#D1CFD1" transform="translate(88,353)"/>
<path d="M0 0 C0.66 0 1.32 0 2 0 C2.28571429 7.42857143 2.28571429 7.42857143 0 11 C-0.66 11 -1.32 11 -2 11 C-1.34 7.37 -0.68 3.74 0 0 Z " fill="#D5D4D5" transform="translate(194,200)"/>
<path d="M0 0 C0.66 0.33 1.32 0.66 2 1 C0.06745228 3.0245738 -1.63158688 4.42105792 -4 6 C-6.6875 5.625 -6.6875 5.625 -9 5 C-8.443125 4.731875 -7.88625 4.46375 -7.3125 4.1875 C-4.90178463 2.99670459 -4.90178463 2.99670459 -2.375 1.3125 C-1.59125 0.879375 -0.8075 0.44625 0 0 Z " fill="#DAD7DB" transform="translate(190,212)"/>
<path d="M0 0 C2.42130331 2.42130331 2.52840504 3.80111377 3.125 7.125 C3.29257812 8.03507812 3.46015625 8.94515625 3.6328125 9.8828125 C3.81457031 10.93082031 3.81457031 10.93082031 4 12 C3.34 11.67 2.68 11.34 2 11 C2 9.68 2 8.36 2 7 C1.34 7 0.68 7 0 7 C0 4.69 0 2.38 0 0 Z " fill="#D9D4D9" transform="translate(348,61)"/>
<path d="M0 0 C4.455 1.98 4.455 1.98 9 4 C9 4.66 9 5.32 9 6 C5.08788267 4.84414715 2.1254959 3.64465038 -1 1 C-0.67 0.67 -0.34 0.34 0 0 Z " fill="#D4D1D2" transform="translate(122,386)"/>
<path d="M0 0 C4 0 4 0 5.484375 1.3125 C6.65625 2.875 7.828125 4.4375 9 6 C4.75177626 5.52797514 2.80010291 3.03344482 0 0 Z " fill="#D0CFCF" transform="translate(252,272)"/>
<path d="M0 0 C8.57142857 -0.28571429 8.57142857 -0.28571429 12 2 C9.69 2.33 7.38 2.66 5 3 C5 2.67 5 2.34 5 2 C3.35 1.67 1.7 1.34 0 1 C0 0.67 0 0.34 0 0 Z " fill="#DBDADA" transform="translate(220,261)"/>
</svg>
