<?xml version="1.0" encoding="UTF-8"?>
<svg version="1.1" xmlns="http://www.w3.org/2000/svg" width="425" height="425">
<path d="M0 0 C0.85098267 -0.00953201 1.70196533 -0.01906403 2.57873535 -0.02888489 C3.49441284 -0.02797348 4.41009033 -0.02706207 5.35351562 -0.02612305 C6.29658569 -0.03040817 7.23965576 -0.0346933 8.21130371 -0.03910828 C10.20515134 -0.04485112 12.19901991 -0.04535218 14.19287109 -0.04101562 C17.2480834 -0.03785389 20.3023292 -0.06132156 23.35742188 -0.08666992 C25.29361857 -0.08894269 27.22981787 -0.08964652 29.16601562 -0.08862305 C30.53953186 -0.10243767 30.53953186 -0.10243767 31.9407959 -0.11653137 C33.2172699 -0.10718819 33.2172699 -0.10718819 34.51953125 -0.09765625 C35.26771118 -0.09828568 36.01589111 -0.0989151 36.78674316 -0.0995636 C39.37023218 0.39044497 40.16544511 1.20433746 41.75976562 3.2746582 C42.76541138 5.35142517 42.76541138 5.35142517 43.66650391 7.78222656 C44.01246613 8.70273804 44.35842834 9.62324951 44.71487427 10.57165527 C45.08289154 11.57579468 45.45090881 12.57993408 45.83007812 13.61450195 C46.22363495 14.66738403 46.61719177 15.72026611 47.02267456 16.80505371 C47.87263539 19.08128126 48.7189418 21.358876 49.56201172 23.63766479 C51.34703505 28.4613543 53.15028469 33.2781542 54.95306396 38.0952301 C55.87499306 40.55865563 56.79608805 43.02239346 57.71636963 45.48643494 C61.99089292 56.92350003 66.35267276 68.32560353 70.75976562 79.7121582 C71.11119629 80.62121918 71.46262695 81.53028015 71.82470703 82.46688843 C76.55498643 94.69566119 81.39080867 106.87670861 86.30249023 119.03369141 C90.82058594 130.28611791 95.05690814 141.63969497 99.29193115 153.00097656 C103.28387981 163.70855377 107.31612594 174.39421605 111.50976562 185.0246582 C112.15534424 186.66277466 112.15534424 186.66277466 112.81396484 188.33398438 C114.88836926 193.58264257 116.97886417 198.82456624 119.0864563 204.05996704 C120.1277675 206.65066417 121.16262335 209.24391464 122.19665527 211.83752441 C122.92768358 213.66325244 123.66830338 215.4851308 124.40917969 217.30688477 C124.84842773 218.40871094 125.28767578 219.51053711 125.74023438 220.64575195 C126.13106201 221.61440186 126.52188965 222.58305176 126.92456055 223.58105469 C127.77568267 226.32599195 128.00340892 228.42059603 127.75976562 231.2746582 C124.81174292 234.2226809 113.99628169 232.64402334 109.81420898 232.6796875 C107.9081003 232.70127589 106.00209097 232.73538892 104.09643555 232.78222656 C101.35225033 232.84909986 98.61011855 232.87666462 95.86523438 232.89575195 C95.0140654 232.92358261 94.16289642 232.95141327 93.28593445 232.98008728 C90.97243941 232.97203661 88.9945404 232.87263268 86.75976562 232.2746582 C82.66596704 227.9975488 80.93773037 222.06630173 78.90429688 216.5715332 C78.55719162 215.65253235 78.21008636 214.73353149 77.85246277 213.78668213 C76.7519363 210.86863011 75.66181723 207.94682357 74.57226562 205.0246582 C73.46974975 202.08909861 72.36514346 199.15433381 71.25993347 196.2197876 C70.57453415 194.39760372 69.89113265 192.57466689 69.20991516 190.75091553 C68.90256943 189.92956116 68.59522369 189.10820679 68.27856445 188.26196289 C68.0086116 187.53837585 67.73865875 186.81478882 67.46052551 186.0692749 C66.76780941 184.21470506 66.76780941 184.21470506 65.75976562 182.2746582 C46.82912894 181.2412785 27.9015125 181.16316888 8.94726562 181.1496582 C7.72152832 181.14716064 6.49579102 181.14466309 5.23291016 181.14208984 C-14.02605561 181.10708793 -14.02605561 181.10708793 -33.24023438 182.2746582 C-33.52938721 183.16314453 -33.81854004 184.05163086 -34.11645508 184.96704102 C-37.09611446 194.02539373 -40.27722865 202.98832697 -43.63452148 211.91333008 C-44.44222462 214.06322749 -45.24274043 216.21571887 -46.04296875 218.3684082 C-46.56012218 219.74877572 -47.07768431 221.12899021 -47.59570312 222.5090332 C-48.05614014 223.73847656 -48.51657715 224.96791992 -48.9909668 226.23461914 C-50.24023437 229.2746582 -50.24023437 229.2746582 -52.24023438 232.2746582 C-54.03726196 232.63542175 -54.03726196 232.63542175 -56.23095703 232.61523438 C-57.46200668 232.61489449 -57.46200668 232.61489449 -58.71792603 232.61454773 C-59.60442841 232.59906387 -60.49093079 232.58358002 -61.40429688 232.56762695 C-62.31150482 232.56338211 -63.21871277 232.55913727 -64.15341187 232.55476379 C-67.05765169 232.53793953 -69.96120347 232.5002808 -72.86523438 232.4621582 C-74.8313702 232.4471162 -76.79751688 232.43342695 -78.76367188 232.42114258 C-83.58945876 232.38802377 -88.41472983 232.33621606 -93.24023438 232.2746582 C-94.59042949 228.22407287 -93.21112239 225.63209125 -91.78320312 221.80200195 C-91.50993698 221.05007065 -91.23667084 220.29813934 -90.9551239 219.52342224 C-87.99221243 211.44784445 -84.80848792 203.45854954 -81.60876465 195.47457886 C-74.72671821 178.28676534 -68.04777038 161.02615346 -61.49023438 143.7121582 C-60.88536697 142.11547806 -60.88536697 142.11547806 -60.26828003 140.48654175 C-58.67974122 136.29215971 -57.09192537 132.09750533 -55.50532532 127.90238953 C-52.22483229 119.22859971 -48.92789468 110.5612109 -45.61523438 101.8996582 C-45.36482391 101.24472382 -45.11441345 100.58978943 -44.85641479 99.91500854 C-38.33890107 82.87555315 -31.74783697 65.86437583 -25.16760254 48.84907532 C-21.53946837 39.46548715 -17.92635858 30.07616258 -14.31835938 20.68481445 C-13.98384766 19.82130371 -13.64933594 18.95779297 -13.3046875 18.06811523 C-12.50801456 15.97739693 -11.73443134 13.87785467 -10.97265625 11.77416992 C-10.54017578 10.59741699 -10.10769531 9.42066406 -9.66210938 8.20825195 C-9.27120117 7.12471436 -8.88029297 6.04117676 -8.47753906 4.92480469 C-6.55086142 0.79811057 -4.28692057 0.02639943 0 0 Z M15.75976562 49.2746582 C15.56534882 49.79384323 15.37093201 50.31302826 15.17062378 50.84794617 C-1.38659412 95.06050628 -1.38659412 95.06050628 -9.28387451 115.96987915 C-9.87543357 117.53655132 -10.46646533 119.1034227 -11.0569458 120.67050171 C-11.8755884 122.84253546 -12.69627842 125.01378426 -13.51757812 127.18481445 C-13.97382568 128.39274658 -14.43007324 129.60067871 -14.90014648 130.84521484 C-15.5910855 132.61340947 -16.2913559 134.3814389 -17.1111145 136.09371948 C-19.14007928 140.35879183 -19.22698558 141.3409022 -18.24023438 146.2746582 C5.18976563 146.2746582 28.61976563 146.2746582 52.75976562 146.2746582 C52.0047892 140.4607196 52.0047892 140.4607196 50.38378906 135.17993164 C49.96564186 134.08697533 49.96564186 134.08697533 49.53904724 132.97193909 C49.23547806 132.20043015 48.93190887 131.4289212 48.61914062 130.6340332 C48.30046524 129.80608749 47.98178986 128.97814178 47.65345764 128.12510681 C46.96815954 126.34677597 46.27958668 124.56970424 45.58804321 122.79379272 C43.75480995 118.08584965 41.94486943 113.36893951 40.13085938 108.65356445 C39.76284714 107.69911942 39.3948349 106.74467438 39.01567078 105.76130676 C35.18380341 95.81194028 31.47291446 85.81899507 27.78039551 75.81726074 C27.03042814 73.78598512 26.28007123 71.75485444 25.52929688 69.72387695 C25.18044937 68.78005661 25.18044937 68.78005661 24.82455444 67.81716919 C22.52588713 61.61449183 20.15257484 55.44157714 17.75976562 49.2746582 C17.09976563 49.2746582 16.43976563 49.2746582 15.75976562 49.2746582 Z " fill="#E7E7E7" transform="translate(101.240234375,92.725341796875)"/>
<path d="M0 0 C1.18464844 -0.01160156 2.36929688 -0.02320313 3.58984375 -0.03515625 C11.15058813 -0.01014828 17.71441415 0.95671228 24.875 3.375 C25.968125 3.73980469 27.06125 4.10460937 28.1875 4.48046875 C39.74765642 9.13477591 48.40994183 16.34560462 56.875 25.375 C56.91258423 24.48192139 56.91258423 24.48192139 56.95092773 23.57080078 C57.06677494 20.88030864 57.18955196 18.1901766 57.3125 15.5 C57.35181641 14.56285156 57.39113281 13.62570313 57.43164062 12.66015625 C57.47353516 11.76425781 57.51542969 10.86835938 57.55859375 9.9453125 C57.61358032 8.70418701 57.61358032 8.70418701 57.66967773 7.43798828 C57.875 5.375 57.875 5.375 58.875 3.375 C63.80459122 3.32557101 68.73403825 3.28926682 73.66381836 3.26513672 C75.34092725 3.25507763 77.01801861 3.24142878 78.69506836 3.22412109 C81.10535002 3.19986848 83.51539986 3.1885161 85.92578125 3.1796875 C87.05092888 3.16420364 87.05092888 3.16420364 88.19880676 3.14840698 C91.97800779 3.147592 93.64914399 3.22442933 96.875 5.375 C97.26255417 8.24925804 97.26255417 8.24925804 97.28045654 12.00448608 C97.28780894 12.69349302 97.29516133 13.38249995 97.30273652 14.09238589 C97.32381224 16.41247355 97.32344182 18.73206974 97.32324219 21.05224609 C97.3338902 22.71106312 97.34583814 24.36987223 97.35899353 26.02867126 C97.39095128 30.54314654 97.40425562 35.05750746 97.41404247 39.57207823 C97.42711929 44.29083303 97.45626221 49.00948927 97.48345947 53.72817993 C97.5268125 61.65568058 97.55890327 69.58316219 97.58349609 77.51074219 C97.61513218 87.68909373 97.665329 97.86726477 97.72141647 108.04550743 C97.76943438 116.78863143 97.80876157 125.53179145 97.84677219 134.27496386 C97.8593858 137.08834721 97.87322196 139.90172261 97.88722992 142.71509933 C97.90869987 147.13582878 97.92475011 151.55654669 97.93658638 155.97731209 C97.94169824 157.60109788 97.9485331 159.22487929 97.95720482 160.84864998 C97.96870443 163.06296477 97.973919 165.27720688 97.97747803 167.49154663 C97.98187771 168.73152594 97.98627739 169.97150524 97.99081039 171.24905968 C97.89458697 173.84631088 97.79283232 175.95312 96.875 178.375 C92.37937071 180.62281464 86.33051304 179.82786499 81.3269043 179.98754883 C79.08130411 180.06187759 76.83675443 180.1526456 74.59179688 180.24414062 C73.15888823 180.29268272 71.72594582 180.34024041 70.29296875 180.38671875 C68.99125732 180.43272217 67.6895459 180.47872559 66.34838867 180.52612305 C62.875 180.375 62.875 180.375 57.875 178.375 C57.545 171.445 57.215 164.515 56.875 157.375 C55.823125 158.509375 54.77125 159.64375 53.6875 160.8125 C37.96041833 176.51174612 18.7038078 183.63582831 -3.36035156 183.6237793 C-24.6323248 183.30720496 -43.64585464 174.72314764 -59.125 160.375 C-71.61282152 147.49341834 -79.06572415 132.72367894 -83.125 115.375 C-83.36992187 114.39660156 -83.61484375 113.41820312 -83.8671875 112.41015625 C-89.38661241 86.06057294 -83.18832812 58.92764433 -69.25 36.3359375 C-56.76945122 18.29114406 -39.24419667 5.72375115 -17.67041016 0.97265625 C-11.77345453 -0.02140431 -5.96680069 -0.05881841 0 0 Z M-33.125 53.375 C-43.36038657 67.30394617 -47.15598759 84.42176664 -44.84082031 101.46728516 C-42.14221522 116.67135648 -35.40068292 129.66900606 -23.125 139.375 C-10.81563444 147.38430318 2.80744588 150.67814681 17.34765625 147.65234375 C31.2673755 143.63109152 41.72200611 136.87710656 49.26953125 124.35546875 C57.7058018 108.69397378 60.30502764 89.32553042 55.25 72 C54.52005914 70.10011909 53.73043447 68.22177908 52.875 66.375 C52.45089844 65.43011719 52.02679688 64.48523438 51.58984375 63.51171875 C45.44897318 51.14445016 36.098518 41.97183161 23.1875 37.0625 C1.99032915 30.00653567 -18.59564992 36.83553433 -33.125 53.375 Z " fill="#E8E8E8" transform="translate(318.125,145.625)"/>
<path d="M0 0 C0.99 0.33 1.98 0.66 3 1 C2.40477663 2.44122613 1.79842381 3.87785868 1.1875 5.3125 C0.68283203 6.51326172 0.68283203 6.51326172 0.16796875 7.73828125 C-0.98200704 9.96515745 -2.13626961 11.34987767 -4 13 C-3.52343588 11.20763933 -3.04366502 9.41613103 -2.5625 7.625 C-2.29566406 6.62726563 -2.02882812 5.62953125 -1.75390625 4.6015625 C-1 2 -1 2 0 0 Z " fill="#E2E2E2" transform="translate(57,191)"/>
<path d="M0 0 C3.10011632 2.53645881 4.0575938 5.15184135 5 9 C4.67 10.32 4.34 11.64 4 13 C2.35 9.04 0.7 5.08 -1 1 C-0.67 0.67 -0.34 0.34 0 0 Z " fill="#DFDFDF" transform="translate(153,127)"/>
</svg>
